# xmcd CD database file
#
# Track frame offsets:
#	150
#	22857
#	41082
#	61503
#	71068
#	84368
#	112050
#	126711
#	150453
#	168826
#	183454
#	196692
#	208100
#	226256
#
# Disc length: 3282 seconds
#
# Revision: 1
# Processed by: cddbd v1.5.2PL0 Copyright (c) Steve Scherf et al.
# Submitted via: CDex 1.51
#
DISCID=b50cd00e
DTITLE=Giovanni Allevi - Allevi Live CD2
DYEAR=2007
DGENRE=Jazz
TTITLE0=Aria
TTITLE1=Portami via
TTITLE2=Panic
TTITLE3=Viaggio in aereo
TTITLE4=Luna
TTITLE5=L'orologio degli dei
TTITLE6=Jazzmatic
TTITLE7=Notte ad Harlem
TTITLE8=Scherzo n°1
TTITLE9=Jappan
TTITLE10=Il vento
TTITLE11=Qui danza
TTITLE12=Il bacio
TTITLE13=New renassaince
EXTD=YEAR: 2007
EXTT0=
EXTT1=
EXTT2=
EXTT3=
EXTT4=
EXTT5=
EXTT6=
EXTT7=
EXTT8=
EXTT9=
EXTT10=
EXTT11=
EXTT12=
EXTT13=
PLAYORDER=
